<svg id="Layer_1" data-name="Layer 1" xmlns="http://www.w3.org/2000/svg" viewBox="0 0 122.88 122.88"><defs><style>.cls-1{fill:#ff4500;}.cls-1,.cls-2{fill-rule:evenodd;}.cls-2{fill:#fff;}</style></defs><title>reddit-square-color</title><path class="cls-1" d="M25.2,0H97.68a25.27,25.27,0,0,1,25.2,25.2V97.68a25.27,25.27,0,0,1-25.2,25.2H25.2A25.27,25.27,0,0,1,0,97.68V25.2A25.27,25.27,0,0,1,25.2,0Z"/><path class="cls-2" d="M97.66,56.92a9.05,9.05,0,0,0-17-4.4,39.5,39.5,0,0,0-16.5-4.58l5.4-12.13,10.34,3a6.79,6.79,0,1,0,.43-5.47L68.83,30a2.69,2.69,0,0,0-3.2,1.49L58.29,48a39.56,39.56,0,0,0-16.1,4.55A9.06,9.06,0,1,0,30.62,65.2a16.6,16.6,0,0,0-.88,5.3c0,12.5,14.19,22.63,31.7,22.63S93.13,83,93.13,70.5a16.59,16.59,0,0,0-.87-5.3,9.06,9.06,0,0,0,5.4-8.29ZM43.33,66a4.53,4.53,0,1,1,4.53,4.53A4.52,4.52,0,0,1,43.33,66ZM70.5,66A4.53,4.53,0,1,1,75,70.5,4.52,4.52,0,0,1,70.5,66Zm.22,9.68a2.69,2.69,0,1,1,3.33,4.23,21,21,0,0,1-25.21,0,2.69,2.69,0,0,1,3.33-4.23,15.59,15.59,0,0,0,18.55,0ZM86.34,34a2.55,2.55,0,1,1-2.55,2.55A2.56,2.56,0,0,1,86.34,34ZM29.75,56.92A4.53,4.53,0,0,1,38.37,55a24.06,24.06,0,0,0-5.78,6.14,4.52,4.52,0,0,1-2.84-4.2Zm60.54,4.2A24.06,24.06,0,0,0,84.51,55a4.53,4.53,0,1,1,5.78,6.14ZM61.44,87.77C46.91,87.77,35.12,80,35.12,70.5S46.9,53.23,61.44,53.23,87.76,61,87.76,70.5,76,87.77,61.44,87.77Z"/></svg>